<?xml version="1.0" encoding="UTF-8" standalone="no"?>
<svg
   xmlns:dc="http://purl.org/dc/elements/1.1/"
   xmlns:cc="http://creativecommons.org/ns#"
   xmlns:rdf="http://www.w3.org/1999/02/22-rdf-syntax-ns#"
   xmlns:svg="http://www.w3.org/2000/svg"
   xmlns="http://www.w3.org/2000/svg"
   version="1.1"
   id="svg4145"
   viewBox="0 0 800.00001 800.00001"
   height="800"
   width="800">
  <defs
     id="defs4147" />
  <metadata
     id="metadata4150">
    <rdf:RDF>
      <cc:Work
         rdf:about="">
        <dc:format>image/svg+xml</dc:format>
        <dc:type
           rdf:resource="http://purl.org/dc/dcmitype/StillImage" />
        <dc:title></dc:title>
      </cc:Work>
    </rdf:RDF>
  </metadata>
  <path
     id="rect4208"
     d="M 0 87.892578 L 0 708.69141 L 800 708.69141 L 800 87.892578 L 0 87.892578 z M 79.90625 170.02148 L 720.07422 170.02148 L 720.07422 626.5625 L 79.90625 626.5625 L 79.90625 170.02148 z M 236.79492 227.08984 A 60.79995 60.79995 0 0 0 175.99414 287.89062 A 60.79995 60.79995 0 0 0 236.79492 348.68945 A 60.79995 60.79995 0 0 0 297.5957 287.89062 A 60.79995 60.79995 0 0 0 236.79492 227.08984 z M 479.46094 294.82227 L 382.39453 432.42188 L 330.12891 381.75586 L 178.12891 540.68945 L 645.32812 540.68945 L 479.46094 294.82227 z "
     style="color:#000000;clip-rule:nonzero;display:inline;overflow:visible;visibility:visible;opacity:1;isolation:auto;mix-blend-mode:normal;color-interpolation:sRGB;color-interpolation-filters:linearRGB;solid-color:#000000;solid-opacity:1;fill:#404040;fill-opacity:1;fill-rule:nonzero;stroke:none;stroke-width:0.40000001;stroke-miterlimit:4;stroke-dasharray:none;stroke-opacity:1;color-rendering:auto;image-rendering:auto;shape-rendering:auto;text-rendering:auto;enable-background:accumulate" />
</svg>
